<svg width="44" height="48" viewBox="0 0 44 48" fill="none" xmlns="http://www.w3.org/2000/svg">
<path d="M26.9578 14.9356C26.9578 12.857 26.0413 10.9002 24.4459 9.56635C22.8485 8.23452 20.7379 7.6894 18.6653 8.06479C15.8858 8.57396 13.6554 10.7744 13.1163 13.5459C12.6611 15.8901 13.3959 18.2662 15.0831 19.9095C15.4505 20.271 15.778 20.5445 16.0615 20.7801C16.8363 21.4231 16.974 21.5389 16.974 22.6052V25.9178C16.974 27.02 17.8686 27.9145 18.9708 27.9145C18.9708 28.4656 19.4181 28.9129 19.9692 28.9129C20.5203 28.9129 20.9676 28.4656 20.9676 27.9145C22.0698 27.9145 22.9643 27.02 22.9643 25.9178V22.6132C22.9643 21.5609 23.164 21.3931 23.9008 20.7741C24.2502 20.4786 24.6556 20.1352 25.1068 19.652C26.3009 18.3661 26.9578 16.6908 26.9578 14.9356ZM20.9676 25.9178H18.9708V23.921H20.9676V25.9178ZM23.6432 18.2942C23.2598 18.7055 22.9144 18.995 22.6169 19.2446C21.8761 19.8676 21.1692 20.4606 21.0035 21.9243H18.9389C18.8031 20.5385 18.22 19.9774 17.3414 19.2426C17.0919 19.037 16.8023 18.7934 16.4749 18.4759C15.2548 17.2898 14.7457 15.6325 15.0771 13.9293C15.4545 11.9884 17.0759 10.387 19.0247 10.0316C20.5383 9.75604 22.0099 10.1374 23.166 11.1019C24.3061 12.0543 24.9611 13.452 24.9611 14.9356C24.9611 16.1836 24.4938 17.3777 23.6432 18.2942ZM42.9319 28.9129C42.9319 27.4972 40.0146 22.2757 38.559 19.7578C38.6947 19.039 38.9384 17.3956 38.9384 14.9356C38.9384 10.6726 33.2955 -0.0400391 19.9692 -0.0400391C6.88444 -0.0400391 1 9.88583 1 16.9324C1 21.9163 3.94521 27.024 6.30937 31.1233C7.68713 33.5134 8.98702 35.7698 8.98702 36.8999C8.98702 39.4418 4.85374 44.4796 3.26232 46.2068C2.88693 46.6122 2.91289 47.2431 3.31823 47.6165C3.50992 47.7962 3.75353 47.8821 3.99513 47.8821C4.26469 47.8821 4.53226 47.7743 4.72794 47.5606C5.3689 46.8677 10.9838 40.6778 10.9838 36.8999C10.9838 35.2346 9.68589 32.9803 8.03856 30.1269C5.79221 26.2333 2.99676 21.3832 2.99676 16.9324C2.99676 12.0463 7.14601 1.95672 19.9692 1.95672C32.6965 1.95672 36.9416 12.1881 36.9416 14.9356C36.9416 17.9907 36.5383 19.6699 36.5363 19.6899C36.4744 19.9415 36.5143 20.2091 36.6421 20.4327C38.6508 23.8831 40.8652 28.1142 40.9391 28.8989C40.8473 29.1745 39.8129 29.7076 38.7347 29.9353C38.4551 29.9932 38.2155 30.1689 38.0738 30.4145C37.934 30.6621 37.902 30.9576 37.9919 31.2272L38.7946 33.6372L38.2335 34.1983C37.9879 34.4439 37.916 34.7834 37.9799 35.1009C37.8421 35.1668 37.7024 35.2446 37.5706 35.3604C37.285 35.614 36.9416 36.0893 36.9416 36.8999C36.9416 37.6986 37.2771 38.1978 37.5207 38.5632C37.7643 38.9266 37.94 39.1902 37.94 39.8951C37.94 40.6738 37.6425 41.2728 33.7847 41.9058C31.147 42.3371 24.9611 44.5515 24.9611 46.8837C24.9611 47.4348 25.3944 47.96 25.9455 47.96C26.4986 47.96 26.9299 47.5906 26.9299 47.0395C27.2833 46.3266 30.8275 44.4117 34.1082 43.8746C36.5662 43.4753 39.9367 42.9241 39.9367 39.8951C39.9367 38.5792 39.4795 37.9003 39.18 37.451C38.9763 37.1495 38.9384 37.0756 38.8126 36.8919C39.3437 36.9618 39.8609 36.5745 39.9287 36.0254C39.9547 35.8157 39.8968 35.622 39.8069 35.4483L40.6436 34.6117C40.9111 34.3441 41.005 33.9487 40.8852 33.5893L40.2183 31.5886C41.3644 31.1932 42.9319 30.3785 42.9319 28.9129Z" fill="#02CC92" stroke="#02CC92" stroke-width="0.2"/>
</svg>
