<svg width="33" height="39" viewBox="0 0 33 39" fill="none" xmlns="http://www.w3.org/2000/svg">
<path d="M20.7502 38.2775H12.2502C8.27429 38.2775 7.02266 31.52 6.48716 28.6343C6.44466 28.4133 6.32566 28.2156 6.12804 28.0478C2.76416 25.1599 0.739037 20.9779 0.573287 16.5749C0.413912 12.3865 2.02679 8.18753 4.99541 5.05528C7.95979 1.92728 12.0589 0.0955273 16.2409 0.0296523C20.5143 0.00202732 24.6092 1.58515 27.6777 4.6069C30.7483 7.62653 32.4377 11.6598 32.4377 15.965C32.4377 20.6082 30.4083 25.0112 26.8702 28.0478C26.6747 28.2156 26.5557 28.4111 26.5153 28.6279C26.0244 31.2671 24.7282 38.2775 20.7502 38.2775ZM16.5023 2.15253C16.4258 2.15253 16.3514 2.15253 16.277 2.15465C12.6624 2.21203 9.11366 3.80153 6.53816 6.51728C3.96054 9.23728 2.56016 12.8732 2.69616 16.4942C2.84066 20.3085 4.59591 23.9316 7.51141 26.4349C8.07666 26.9215 8.44429 27.5441 8.57391 28.2433C9.84891 35.1261 11.4235 36.1546 12.248 36.1546H20.748C21.5747 36.1546 23.1493 35.1261 24.4222 28.2433C24.5518 27.5463 24.9194 26.9236 25.4825 26.4391C28.551 23.8063 30.3105 19.9898 30.3105 15.9672C30.3105 12.2357 28.8464 8.74003 26.188 6.12203C23.5849 3.55715 20.1509 2.15253 16.5023 2.15253Z" fill="#02CC92" stroke="#02CC92" stroke-width="0.1"/>
</svg>
