<svg width="48" height="48" viewBox="0 0 48 48" fill="none" xmlns="http://www.w3.org/2000/svg">
<path d="M19.4024 13.276C18.9044 13.516 18.6944 14.112 18.9324 14.61C19.1704 15.108 19.7604 15.32 20.2664 15.082C21.7684 14.364 23.3624 14 24.9984 14C30.4224 14 35.0964 18.048 35.8704 23.416C35.9424 23.914 36.3704 24.274 36.8584 24.274C36.9064 24.274 36.9544 24.272 37.0024 24.264C37.5504 24.186 37.9284 23.678 37.8504 23.132C36.9344 16.786 31.4084 12 24.9984 12C23.0604 12 21.1784 12.43 19.4024 13.276ZM14.5284 9.154C17.6404 7.09 21.2604 6 24.9984 6C35.4744 6 43.9984 14.524 43.9924 25.128C43.9904 25.146 43.9804 25.334 43.9804 25.352C43.9724 25.894 44.4004 26.258 44.9424 26.28H44.9784C45.5044 26.28 45.9524 25.792 45.9884 25.264C45.9904 25.24 46.0004 25.022 46.0004 25C46.0004 13.42 36.5804 4 25.0004 4C20.8704 4 16.8664 5.206 13.4244 7.486C12.9624 7.79 12.8384 8.412 13.1424 8.872C13.4484 9.334 14.0704 9.454 14.5284 9.154ZM43.8724 41.708L40.8704 40.958L40.7444 40.456C41.5224 39.596 42.0764 38.498 42.3064 37.358C42.8404 37.082 43.2264 36.558 43.3064 35.928L43.5224 34.188C43.5884 33.66 43.4264 33.128 43.0764 32.728C42.9684 32.606 42.8444 32.498 42.7124 32.408L42.7624 31.346L42.9444 31.164C43.4604 30.616 44.1584 29.446 43.0544 27.758C42.5304 26.956 41.4504 26 39.2864 26C38.6484 26 37.2104 26 35.8144 26.874C31.6984 27.02 31.2144 29.238 31.2144 30.912C31.2144 31.242 31.2744 31.86 31.3304 32.376C31.1824 32.47 31.0464 32.586 30.9284 32.72C30.5724 33.124 30.4084 33.658 30.4764 34.188L30.6924 35.928C30.7744 36.58 31.1884 37.12 31.7984 37.386C32.0224 38.476 32.5464 39.532 33.2764 40.37L33.1304 40.958L30.1284 41.708C27.6984 42.316 25.9984 44.492 25.9984 47C25.9984 47.266 26.1024 47.522 26.2904 47.708C26.4784 47.894 26.7324 48 26.9984 48L47.0024 47.998C47.5544 47.998 48.0024 47.55 48.0024 46.998C48.0024 44.49 46.3044 42.316 43.8724 41.708ZM28.1444 45.998C28.4884 44.858 29.4104 43.95 30.6184 43.646L34.2024 42.75C34.5604 42.66 34.8404 42.38 34.9304 42.022L35.3564 40.316C35.4444 39.964 35.3344 39.592 35.0684 39.344C34.2904 38.612 33.7744 37.542 33.6904 36.482C33.6484 35.964 33.2044 35.676 32.6824 35.676L32.4244 34.084C32.7124 34.084 32.9844 33.962 33.1744 33.746C33.3644 33.532 33.4524 33.246 33.4164 32.96C33.3405 32.356 33.2184 31.264 33.2184 30.912C33.2184 29.876 33.2184 28.898 36.1424 28.868C36.3464 28.866 36.5464 28.802 36.7144 28.682C37.6665 28 38.7624 28 39.2884 28C40.3224 28 41.0064 28.278 41.3824 28.852C41.7884 29.474 41.6224 29.65 41.5104 29.772L41.0764 30.206C40.9004 30.382 40.7964 30.616 40.7844 30.864L40.6784 33.04C40.6665 33.312 40.6984 33.502 40.8844 33.7C41.0724 33.898 41.2644 33.938 41.5364 33.94L41.4084 35.566C40.8864 35.566 40.4544 35.966 40.4124 36.486C40.3244 37.564 39.7704 38.682 38.9664 39.404C38.6924 39.65 38.5744 40.03 38.6644 40.39L39.0724 42.024C39.1624 42.382 39.4404 42.664 39.8004 42.752L43.3844 43.648C44.5884 43.95 45.5084 44.858 45.8524 46L28.1444 45.998ZM4.99845 10H8.58445L20.8304 22.248C20.3064 23.038 19.9984 23.984 19.9984 25C19.9984 27.756 22.2404 30 24.9984 30C27.7564 30 29.9984 27.756 29.9984 25C29.9984 22.244 27.7564 20 24.9984 20C23.9804 20 23.0364 20.31 22.2464 20.834L9.99845 8.586V5C9.99845 4.734 9.89245 4.48 9.70645 4.292L5.70645 0.292001C5.42045 0.00600147 4.99045 -0.0779985 4.61645 0.0760015C4.24245 0.230001 3.99845 0.596001 3.99845 1V4H0.998449C0.594449 4 0.230449 4.244 0.0744489 4.618C-0.081551 4.992 0.00444892 5.422 0.290449 5.708L4.29045 9.708C4.47845 9.894 4.73245 10 4.99845 10ZM22.2984 23.716L24.2904 25.708C24.4864 25.902 24.7424 26 24.9984 26C25.2544 26 25.5104 25.902 25.7064 25.708C26.0964 25.318 26.0964 24.684 25.7064 24.294L23.7124 22.3C24.1044 22.112 24.5364 22 24.9984 22C26.6524 22 27.9984 23.346 27.9984 25C27.9984 26.654 26.6524 28 24.9984 28C23.3444 28 21.9984 26.654 21.9984 25C21.9984 24.538 22.1124 24.106 22.2984 23.716ZM4.99845 6C5.55045 6 5.99845 5.552 5.99845 5V3.414L7.99845 5.414V8H5.41245L3.41245 6H4.99845ZM28.7644 36.43C28.6344 35.892 28.1004 35.558 27.5584 35.688C20.3024 37.404 13.9984 31.894 13.9984 25C13.9984 23.362 14.3624 21.77 15.0804 20.27C15.3184 19.77 15.1084 19.174 14.6104 18.936C14.1144 18.698 13.5144 18.908 13.2764 19.406C12.4284 21.18 11.9984 23.062 11.9984 25C11.9984 32.168 17.8304 38 24.9984 38C25.9824 38 27.0004 37.876 28.0244 37.634C28.5604 37.506 28.8924 36.968 28.7644 36.43ZM23.3704 43.916C13.6284 43.088 5.99845 34.78 5.99845 25C5.99845 21.266 7.08845 17.644 9.15245 14.528C9.45645 14.068 9.32845 13.446 8.87045 13.142C8.41245 12.84 7.79045 12.962 7.48445 13.424C5.20445 16.868 3.99845 20.872 3.99845 25C3.99845 35.81 12.4344 44.996 23.2024 45.91C23.2304 45.914 23.2584 45.914 23.2884 45.914C23.8004 45.914 24.2364 45.52 24.2824 44.998C24.3284 44.446 23.9204 43.962 23.3704 43.916Z" fill="#02CC92"/>
</svg>
