<svg width="48" height="48" viewBox="0 0 48 48" fill="none" xmlns="http://www.w3.org/2000/svg">
<path d="M46.3424 17.2737L40.6416 16.4337C40.1472 15.2833 39.5104 14.1585 38.7072 13.0145L40.872 7.47373C41.2272 6.54253 40.8624 5.51693 40.0224 5.04653L32.0016 0.280132C31.1616 -0.233469 30.0704 -0.0238685 29.4656 0.764931L25.9152 5.43213C24.4864 5.27053 23.5152 5.27053 22.0864 5.43213L18.5328 0.761732C17.9392 -0.0110685 16.8816 -0.220668 16.0048 0.275332L7.9952 5.03533C7.1728 5.49613 6.7968 6.53773 7.1296 7.48013L9.2912 13.0097C8.5168 14.0977 7.8672 15.2449 7.3568 16.4337L1.672 17.2705C0.7184 17.3953 0 18.2385 0 19.2337V28.7745C0 29.7713 0.72 30.6145 1.6576 30.7345L7.3584 31.5745C7.8528 32.7217 8.4896 33.8465 9.2928 34.9921L7.128 40.5345C6.7728 41.4673 7.1376 42.4929 7.9776 42.9617L16.0224 47.7425C16.3328 47.9153 16.6688 48.0001 17 48.0001C17.5856 48.0001 18.1552 47.7361 18.5328 47.2433L22.0832 42.5761C23.192 42.7009 24.8048 42.7009 25.912 42.5761L29.4656 47.2465C30.0592 48.0161 31.1136 48.2241 31.9936 47.7329L34.3152 46.3537C34.6944 46.1281 34.8192 45.6369 34.5936 45.2577C34.368 44.8785 33.8784 44.7521 33.4976 44.9793L31.1952 46.3473C31.0288 46.4417 30.8416 46.4081 30.7376 46.2753L26.9088 41.2433C26.736 41.0161 26.4512 40.8977 26.1712 40.9345C24.9328 41.0945 23.064 41.0945 21.8272 40.9345C21.5472 40.8993 21.2624 41.0161 21.0896 41.2433L17.264 46.2721C17.1584 46.4097 16.9696 46.4385 16.8224 46.3585L8.7776 41.5777C8.6176 41.4881 8.5536 41.2897 8.6208 41.1121L10.9408 35.1729C11.04 34.9169 11.0032 34.6305 10.8416 34.4097C9.8928 33.1057 9.1808 31.8449 8.6656 30.5537C8.56 30.2881 8.3216 30.0993 8.0384 30.0577L1.8752 29.1489C1.7216 29.1297 1.6 28.9649 1.6 28.7745V19.2337C1.6 19.0433 1.7216 18.8785 1.888 18.8561L8.0368 17.9505C8.32 17.9089 8.5584 17.7201 8.664 17.4545C9.2 16.1105 9.9312 14.8161 10.8352 13.6081C11 13.3857 11.04 13.0945 10.9392 12.8369L8.6288 6.92333C8.5696 6.76013 8.616 6.52333 8.7936 6.42253L16.8032 1.66253C16.9696 1.56813 17.1568 1.60013 17.2608 1.73453L21.0896 6.76813C21.2624 6.99533 21.5392 7.10573 21.8288 7.07693C23.5216 6.85613 24.4784 6.85613 26.1712 7.07693C26.456 7.11213 26.7376 6.99693 26.9104 6.76813L30.736 1.73773C30.824 1.62093 30.9968 1.54413 31.1776 1.65133L39.2208 6.43053C39.3792 6.52173 39.4448 6.72013 39.3776 6.89773L37.0576 12.8369C36.9584 13.0913 36.9952 13.3793 37.1568 13.6001C38.1056 14.9009 38.8176 16.1617 39.3328 17.4545C39.4384 17.7201 39.6768 17.9089 39.96 17.9505L46.1232 18.8593C46.2784 18.8785 46.4 19.0433 46.4 19.2337V28.7745C46.4 28.9649 46.2784 29.1297 46.1104 29.1521L42.168 29.7329C41.7296 29.7969 41.4272 30.2033 41.4928 30.6401C41.5568 31.0769 41.96 31.3889 42.4 31.3153L46.328 30.7361C47.28 30.6145 48 29.7713 48 28.7745V19.2337C48 18.2385 47.2816 17.3953 46.3424 17.2737ZM35.7168 28.5809C34.4816 27.3457 33.8272 25.9057 33.5968 23.9073L33.5664 23.6433C33.368 21.8801 33.1216 19.6865 30.8704 17.4657C28.8352 15.4561 26.3904 14.3825 24.0784 14.3985C21.9024 14.4257 19.8256 15.1873 18.0752 16.6001C17.872 16.7649 17.7616 17.0177 17.7792 17.2785C17.7984 17.5393 17.9424 17.7745 18.1664 17.9089L24.3856 21.6417C24.2336 23.6241 23.0672 25.3713 21.2656 26.2721L21.2368 26.2865L15.6704 22.9473C15.4272 22.8017 15.0848 22.8161 14.8384 22.9489C14.5936 23.0801 14.4336 23.3313 14.4176 23.6081C14.256 26.3409 15.1984 28.9377 17.0688 30.9217C18.9136 32.8769 21.512 33.9985 24.2 33.9985C24.9504 33.9985 25.7056 33.8945 26.5456 33.6737L39.392 46.5217C40.3456 47.4737 41.6112 47.9985 42.9568 47.9985H42.96C45.7392 47.9985 48 45.7377 48 42.9553C48 41.6081 47.4752 40.3425 46.5248 39.3905L35.7168 28.5809ZM42.96 46.3985H42.9568C42.0512 46.3985 41.1632 46.0305 40.5232 45.3905L27.3456 32.2113C27.192 32.0593 26.9888 31.9777 26.7792 31.9777C26.7024 31.9777 26.6256 31.9889 26.5504 32.0113C25.6736 32.2753 24.9264 32.3985 24.2016 32.3985C21.92 32.3985 19.8016 31.4849 18.2352 29.8241C16.9776 28.4913 16.2224 26.8257 16.0432 25.0369L20.7904 27.8849C21.0256 28.0257 21.3136 28.0369 21.56 27.9137L21.9808 27.7025C24.4608 26.4625 26.0016 23.9697 26.0016 21.1985C26.0016 20.9169 25.8528 20.6561 25.6128 20.5121L20.0432 17.1697C21.2832 16.4193 22.6672 16.0177 24.0992 16.0001C26.0192 15.9441 28.0192 16.9009 29.7472 18.6049C31.5952 20.4289 31.7888 22.1537 31.976 23.8225L32.0064 24.0897C32.28 26.4705 33.0752 28.2049 34.584 29.7121L45.392 40.5217C46.0336 41.1617 46.4 42.0497 46.4 42.9585C46.4 44.8561 44.8576 46.3985 42.96 46.3985Z" fill="#02CC92" stroke="#00D598" stroke-width="0.5"/>
</svg>
