<svg width="54" height="54" viewBox="0 0 54 54" fill="none" xmlns="http://www.w3.org/2000/svg">
<g clip-path="url(#clip0)">
<path d="M26.9999 43.7401C25.9199 43.7401 24.8399 43.3801 23.7599 42.6601C23.0399 42.3001 17.4599 38.3401 12.9599 34.5601C12.2399 34.0201 11.1599 32.9401 10.2599 31.8601C9.53985 31.1401 8.81985 30.4201 8.45985 30.0601C8.09985 29.7001 8.09985 29.1601 8.27985 28.8001C8.63985 28.4401 9.17986 28.4401 9.53986 28.6201C9.89986 28.9801 10.6199 29.7001 11.5199 30.6001C12.4199 31.5001 13.4999 32.5801 14.0399 33.1201C18.5399 36.9001 24.1199 40.6801 24.8399 41.2201C25.5599 41.7601 26.2799 41.9401 26.9999 41.9401C27.5399 41.9401 28.7999 41.9401 28.7999 41.5801C28.9799 41.2201 29.1599 41.0401 29.5199 41.0401C29.8799 41.0401 30.0599 41.0401 30.4199 41.2201C30.5999 41.4001 30.9599 41.7601 31.6799 41.4001C32.5799 41.0401 33.2999 39.9601 33.4799 39.0601C33.4799 38.7001 33.6599 38.3401 34.0199 38.3401C34.3799 38.1601 34.7399 38.3401 34.9199 38.5201C35.2799 38.8801 35.9999 38.7001 36.7199 38.5201C37.4398 38.1601 38.1598 37.4401 37.9799 36.7201C37.9799 36.3601 38.1598 36.0001 38.3398 35.8201C38.6998 35.6401 39.0598 35.6401 39.2398 35.8201C39.7798 36.1801 40.8598 36.1801 41.3998 35.6401C41.7598 35.2801 41.9398 34.9201 41.5798 34.2001C40.6798 32.4001 36.1799 28.6201 32.7599 25.5601C30.9599 23.9401 29.1599 22.5001 27.8999 21.2401C27.3599 21.4201 26.9999 21.7801 26.8199 21.9601C26.2799 22.3201 25.9199 22.6801 25.0199 22.8601C23.3999 25.0201 21.4199 25.5601 18.8999 24.6601C17.6399 24.3001 17.2799 23.4001 17.0999 22.8601C16.5599 20.7001 18.7199 17.6401 20.3399 16.0201C24.1199 12.2401 26.8199 10.8001 32.2199 13.1401C36.7199 15.1201 40.3198 16.7401 40.3198 16.7401C40.8598 16.9201 41.0398 17.4601 40.8599 18.0001C40.6799 18.5401 40.1398 18.7201 39.5998 18.5401C39.5998 18.5401 35.9999 16.9201 31.4999 14.9401C27.5399 13.1401 25.5599 13.6801 21.7799 17.4601C20.3399 18.9001 18.7199 21.4201 19.0799 22.6801C19.0799 22.8601 19.2599 23.0401 19.6199 23.2201C22.1399 23.9401 23.2199 23.0401 23.9399 21.7801C24.1199 21.6001 24.2999 21.4201 24.6599 21.4201C25.1999 21.4201 25.3799 21.2401 25.9199 20.8801C26.4599 20.5201 26.9999 20.1601 28.0799 19.6201C28.4399 19.4401 28.7999 19.6201 28.9799 19.8001C30.2399 21.0601 32.2199 22.6801 34.1999 24.3001C38.3399 27.7201 42.4799 31.3201 43.5598 33.4801C44.2799 34.7401 43.9198 36.1801 43.0198 37.0801C42.1198 37.8001 41.0398 37.9801 39.9599 37.8001C39.5998 38.7001 38.8798 39.6001 37.7998 40.1401C36.8998 40.5001 35.9999 40.6801 35.2799 40.5001C34.7399 41.5801 33.8399 42.6601 32.7599 43.2001C32.0399 43.5601 31.1399 43.5601 30.4199 43.2001C29.1599 43.5601 27.8999 43.7401 26.9999 43.7401Z" fill="#02CC92" stroke="#02CC92" stroke-width="0.2"/>
<path d="M22.4998 15.84H11.6998C11.1598 15.84 10.7998 15.3 10.7998 14.94C10.7998 14.58 11.1598 14.04 11.6998 14.04H22.4998C23.0398 14.04 23.3998 14.4 23.3998 14.94C23.3998 15.48 23.0398 15.84 22.4998 15.84Z" fill="#02CC92" stroke="#02CC92" stroke-width="0.2"/>
<path d="M42.3 34.74C41.94 34.74 41.76 34.56 41.58 34.38C41.22 34.02 41.4 33.48 41.76 33.12L44.46 31.32C44.82 30.96 45.36 31.14 45.72 31.5C46.08 31.86 45.9 32.4 45.54 32.76L42.84 34.56C42.66 34.56 42.48 34.74 42.3 34.74Z" fill="#02CC92" stroke="#02CC92" stroke-width="0.2"/>
<path d="M38.6998 37.4402C38.5198 37.4402 38.3398 37.4402 38.1598 37.2602C36.8998 36.3602 31.4998 30.6002 30.7798 30.0602C30.4198 29.7002 30.4198 29.1602 30.7798 28.8002C31.1398 28.4402 31.6798 28.4402 32.0398 28.8002C33.6598 30.6002 38.1598 35.2802 39.0598 36.0002C39.4198 36.3602 39.5998 36.9002 39.2398 37.2602C39.2398 37.2602 38.8798 37.4402 38.6998 37.4402Z" fill="#02CC92" stroke="#02CC92" stroke-width="0.2"/>
<path d="M34.2002 40.1401C34.0202 40.1401 33.8402 40.1401 33.6602 39.9601C32.0402 38.7001 27.9002 34.2001 27.1802 33.4801C26.8202 33.1201 26.8202 32.5801 27.1802 32.2201C27.5402 31.8601 28.0802 31.8601 28.4402 32.2201C29.1602 33.1201 33.3002 37.2601 34.5602 38.3401C34.9202 38.7001 35.1002 39.2401 34.7402 39.6001C34.7402 39.9601 34.3802 40.1401 34.2002 40.1401Z" fill="#02CC92" stroke="#02CC92" stroke-width="0.2"/>
<path d="M29.7002 42.8401C29.5202 42.8401 29.3402 42.8401 29.1602 42.6601C27.7202 41.4001 25.0202 38.7001 23.7602 37.2601C23.4002 36.9001 23.4002 36.3601 23.7602 36.0001C24.1202 35.6401 24.6602 35.6401 25.0202 36.0001C26.4602 37.4401 28.9802 40.1401 30.4202 41.4001C30.7802 41.7601 30.7802 42.3001 30.6002 42.6601C30.2402 42.6601 29.8802 42.8401 29.7002 42.8401Z" fill="#02CC92" stroke="#02CC92" stroke-width="0.2"/>
<path d="M0.9 32.0401C0.36 32.0401 0 31.6801 0 31.1401V11.3401C0 10.8001 0.36 10.4401 0.9 10.4401C2.52 10.4401 10.44 10.6201 12.42 12.4201C12.6 12.6001 12.6 12.7801 12.6 13.1401C12.06 18.9001 9.18 30.7801 9 31.3201C8.82 31.6801 8.46 32.0401 8.1 32.0401C8.1 32.0401 3.78 32.0401 0.9 32.0401ZM1.8 12.2401V30.2401C3.78 30.2401 6.3 30.2401 7.38 30.2401C7.92 27.7201 10.26 18.5401 10.8 13.5001C9.36 12.6001 5.04 12.2401 1.8 12.2401Z" fill="#02CC92" stroke="#02CC92" stroke-width="0.2"/>
<path d="M53.0998 33.8401H45.8998C45.5398 33.8401 45.1798 33.4801 44.9998 33.1201C44.0998 30.0601 39.4198 17.6401 37.9798 15.3001C37.7998 15.1201 37.7998 14.7601 37.7998 14.5801C37.7998 14.4001 38.1598 14.0401 38.3398 14.0401C38.5198 14.0401 44.2798 12.2401 53.0998 12.2401C53.6398 12.2401 53.9998 12.6001 53.9998 13.1401V32.9401C53.9998 33.3001 53.6398 33.8401 53.0998 33.8401ZM46.6198 32.0401H52.1998V14.0401C46.2598 14.0401 41.9398 14.9401 39.9598 15.4801C41.9398 19.0801 45.5398 28.6201 46.6198 32.0401Z" fill="#02CC92" stroke="#02CC92" stroke-width="0.2"/>
</g>
<defs>
<clipPath id="clip0">
<rect width="54" height="54" fill="white"/>
</clipPath>
</defs>
</svg>
